<?xml version="1.0" standalone="no"?>
<!DOCTYPE svg PUBLIC "-//W3C//DTD SVG 20010904//EN"
 "http://www.w3.org/TR/2001/REC-SVG-20010904/DTD/svg10.dtd">
<svg version="1.0" xmlns="http://www.w3.org/2000/svg"
 width="307.000000pt" height="307.000000pt" viewBox="0 0 307.000000 307.000000"
 preserveAspectRatio="xMidYMid meet">

<g transform="translate(0.000000,307.000000) scale(0.100000,-0.100000)"
fill="#000000" stroke="none">
<path d="M1142 2820 c-35 -21 -52 -54 -52 -100 0 -63 13 -60 -272 -60 -281 0
-295 -2 -337 -56 -19 -24 -21 -40 -21 -181 0 -85 5 -163 10 -173 6 -11 26 -22
44 -26 39 -7 39 -7 52 -186 l6 -87 -48 -22 c-225 -104 -516 -730 -443 -950 42
-125 152 -125 278 0 74 72 136 162 208 297 38 71 48 84 54 68 4 -10 12 -86 18
-169 10 -131 34 -428 57 -694 10 -113 18 -121 127 -121 46 0 86 -3 89 -6 4 -3
-1 -22 -9 -42 -20 -48 -12 -132 17 -172 12 -17 38 -42 57 -58 32 -24 45 -27
108 -27 63 0 76 3 108 27 65 50 82 84 82 164 0 42 -5 77 -12 86 -7 8 -10 18
-6 21 8 9 577 9 585 1 4 -3 -1 -22 -9 -42 -33 -80 0 -177 79 -234 48 -34 158
-33 209 1 62 42 84 86 84 167 0 43 -5 77 -13 86 -15 19 2 28 52 28 18 0 41 6
51 14 21 15 27 60 70 611 28 359 31 385 43 385 4 0 16 -19 26 -43 108 -237
296 -447 401 -447 63 0 125 89 125 181 0 203 -165 582 -332 764 -46 49 -87 83
-124 101 l-56 27 6 91 c12 169 13 173 52 181 19 3 38 14 44 25 15 28 13 309
-3 340 -7 13 -28 35 -46 47 -33 22 -40 23 -296 23 -288 0 -275 -3 -275 60 0
46 -17 79 -52 100 -31 19 -51 20 -368 20 -317 0 -337 -1 -368 -20z m656 -132
l-3 -23 -285 0 -285 0 -3 23 -3 22 291 0 291 0 -3 -22z m630 -240 l-3 -73
-917 -3 -918 -2 0 75 0 75 920 0 921 0 -3 -72z m-1318 -238 c0 -5 -7 -10 -15
-10 -25 0 -89 -45 -117 -82 -78 -102 -68 -247 24 -335 184 -177 480 27 388
269 -24 64 -94 135 -142 145 -88 17 40 23 533 23 l549 0 0 -23 c0 -21 -12
-172 -45 -557 -21 -242 -42 -501 -60 -720 -8 -102 -19 -230 -25 -285 -5 -55
-10 -110 -10 -122 0 -23 -2 -23 -132 -23 l-131 0 7 112 c3 62 13 235 21 383 9
149 20 329 25 400 20 266 13 305 -56 305 -59 0 -71 -28 -79 -197 -3 -82 -11
-211 -16 -288 -5 -77 -16 -264 -24 -415 -9 -151 -17 -281 -20 -288 -3 -8 -33
-12 -104 -12 l-101 0 -2 586 c-3 566 -4 586 -22 600 -28 20 -73 17 -96 -6 -20
-20 -20 -33 -20 -600 l0 -581 -102 3 -103 3 -7 90 c-8 109 -22 349 -44 750
-13 253 -19 304 -33 325 -23 31 -75 39 -102 14 -23 -20 -25 -92 -9 -299 5 -71
16 -251 25 -398 8 -147 18 -317 21 -377 l7 -110 -131 0 c-130 0 -132 0 -132
23 0 12 -5 64 -10 116 -6 51 -17 182 -25 290 -8 108 -19 239 -24 291 -6 52
-13 136 -16 185 -3 50 -10 133 -15 185 -6 52 -17 183 -25 290 -8 107 -18 230
-22 273 l-6 77 212 0 c134 0 211 -4 211 -10z m147 -96 c75 -43 103 -144 64
-229 -22 -48 -44 -69 -96 -91 -136 -57 -284 105 -220 241 33 69 114 118 179
108 17 -2 50 -15 73 -29z m1257 -351 c84 -84 159 -203 237 -378 40 -90 75
-222 84 -318 7 -73 -6 -74 -72 -9 -152 148 -307 475 -320 673 -4 55 -2 89 4
89 5 0 35 -26 67 -57z m-1929 -1 c21 -152 -161 -551 -320 -701 -74 -70 -82
-62 -66 56 29 207 168 497 307 639 29 30 57 54 62 54 6 0 13 -22 17 -48z m545
-1472 c40 -40 11 -110 -45 -110 -32 0 -65 33 -65 65 0 14 9 34 20 45 11 11 31
20 45 20 14 0 34 -9 45 -20z m930 0 c40 -40 11 -110 -45 -110 -32 0 -65 33
-65 65 0 14 9 34 20 45 11 11 31 20 45 20 14 0 34 -9 45 -20z"/>
<path d="M1805 2176 c-63 -29 -102 -68 -131 -131 -31 -64 -31 -126 0 -190 29
-63 68 -102 131 -131 71 -34 127 -31 206 9 185 94 186 338 1 434 -78 41 -135
43 -207 9z m202 -82 c95 -76 99 -203 10 -281 -86 -76 -221 -48 -279 57 -29 53
-21 138 18 186 45 56 88 76 156 71 46 -2 66 -10 95 -33z"/>
<path d="M1854 2039 c-24 -12 -54 -59 -54 -86 0 -50 70 -99 127 -88 115 21
109 171 -7 181 -25 2 -54 -1 -66 -7z m85 -73 c16 -19 -12 -40 -44 -32 -24 6
-33 25 -18 39 11 12 50 8 62 -7z"/>
<path d="M1114 2041 c-29 -12 -54 -50 -54 -79 0 -13 13 -37 29 -53 23 -23 38
-29 71 -29 95 0 142 72 87 135 -25 30 -94 43 -133 26z m85 -70 c11 -7 9 -11
-8 -20 -33 -18 -76 0 -54 22 9 10 45 8 62 -2z"/>
</g>
</svg>
